<mxfile host="app.diagrams.net" modified="2020-07-14T06:36:32.108Z" agent="5.0 (Macintosh; Intel Mac OS X 10_14_5) AppleWebKit/537.36 (KHTML, like Gecko) Chrome/83.0.4103.61 Safari/537.36" etag="p0HMuoYtnftpXkC8IDjq" version="13.3.5" type="github">
  <diagram id="We72a-n4RO93SI6OnbIz" name="Page-1">
    <mxGraphModel dx="946" dy="614" grid="1" gridSize="10" guides="1" tooltips="1" connect="1" arrows="1" fold="1" page="1" pageScale="1" pageWidth="850" pageHeight="1100" math="0" shadow="0">
      <root>
        <mxCell id="0" />
        <mxCell id="1" parent="0" />
        <mxCell id="M1sSLCUo-GfqUuWwVRYb-3" style="edgeStyle=orthogonalEdgeStyle;rounded=0;orthogonalLoop=1;jettySize=auto;html=1;entryX=0.5;entryY=1;entryDx=0;entryDy=0;" parent="1" source="M1sSLCUo-GfqUuWwVRYb-1" target="M1sSLCUo-GfqUuWwVRYb-2" edge="1">
          <mxGeometry relative="1" as="geometry" />
        </mxCell>
        <mxCell id="M1sSLCUo-GfqUuWwVRYb-4" value="柔性设计是对深层建模的补充" style="edgeLabel;html=1;align=center;verticalAlign=middle;resizable=0;points=[];" parent="M1sSLCUo-GfqUuWwVRYb-3" vertex="1" connectable="0">
          <mxGeometry x="0.05" relative="1" as="geometry">
            <mxPoint as="offset" />
          </mxGeometry>
        </mxCell>
        <mxCell id="M1sSLCUo-GfqUuWwVRYb-1" value="柔性设计" style="rounded=1;whiteSpace=wrap;html=1;fillColor=none;" parent="1" vertex="1">
          <mxGeometry x="280" y="200" width="120" height="40" as="geometry" />
        </mxCell>
        <mxCell id="M1sSLCUo-GfqUuWwVRYb-2" value="深层建模" style="rounded=1;whiteSpace=wrap;html=1;fillColor=none;" parent="1" vertex="1">
          <mxGeometry x="280" y="80" width="120" height="40" as="geometry" />
        </mxCell>
        <mxCell id="M1sSLCUo-GfqUuWwVRYb-5" value="隐式概念显式化" style="rounded=1;whiteSpace=wrap;html=1;fillColor=none;" parent="1" vertex="1">
          <mxGeometry x="480" y="80" width="120" height="40" as="geometry" />
        </mxCell>
        <mxCell id="M1sSLCUo-GfqUuWwVRYb-6" value="过度设计&lt;br&gt;overengineering" style="rounded=1;whiteSpace=wrap;html=1;fillColor=none;" parent="1" vertex="1">
          <mxGeometry x="40" y="80" width="120" height="40" as="geometry" />
        </mxCell>
        <mxCell id="M1sSLCUo-GfqUuWwVRYb-8" value="&lt;span&gt;简单不容易做到&lt;/span&gt;" style="text;html=1;align=center;verticalAlign=middle;resizable=0;points=[];autosize=1;" parent="1" vertex="1">
          <mxGeometry x="50" y="20" width="100" height="20" as="geometry" />
        </mxCell>
        <mxCell id="M1sSLCUo-GfqUuWwVRYb-9" value="设计 要服务于 开发人员的两个角色" style="text;html=1;align=center;verticalAlign=middle;resizable=0;points=[];autosize=1;" parent="1" vertex="1">
          <mxGeometry x="380" y="360" width="200" height="20" as="geometry" />
        </mxCell>
        <mxCell id="M1sSLCUo-GfqUuWwVRYb-13" value="柔性 设计能够揭示深层次的底层模型，并把它潜在的部分明确地展现出来。&lt;br&gt;客户开发人员可以灵活地 使用一个最小化的、松散耦合的概念集合，&lt;br&gt;并用这些概念来表示领域中的众多场景。&lt;br&gt;设计元素非 常自然地组合到一起，其结果也是健壮的，&lt;br&gt;可以被清晰地刻画出来，而且也是可以预知的。" style="rounded=0;orthogonalLoop=1;jettySize=auto;html=1;entryX=0;entryY=0;entryDx=0;entryDy=0;exitX=0.46;exitY=1.025;exitDx=0;exitDy=0;exitPerimeter=0;labelBackgroundColor=none;" parent="1" source="M1sSLCUo-GfqUuWwVRYb-10" target="M1sSLCUo-GfqUuWwVRYb-12" edge="1">
          <mxGeometry x="-0.9375" y="-93" relative="1" as="geometry">
            <mxPoint x="300" y="480" as="sourcePoint" />
            <mxPoint as="offset" />
          </mxGeometry>
        </mxCell>
        <mxCell id="M1sSLCUo-GfqUuWwVRYb-17" value="&lt;br&gt;" style="edgeLabel;html=1;align=center;verticalAlign=middle;resizable=0;points=[];" parent="M1sSLCUo-GfqUuWwVRYb-13" vertex="1" connectable="0">
          <mxGeometry x="-0.33" y="-1" relative="1" as="geometry">
            <mxPoint as="offset" />
          </mxGeometry>
        </mxCell>
        <mxCell id="M1sSLCUo-GfqUuWwVRYb-10" value="客户开发人员&lt;br&gt;&lt;span style=&quot;font-family: &amp;#34;simoncinigaramond&amp;#34; ; font-size: 10pt&quot;&gt;the developer of a client&amp;nbsp;&lt;br&gt;&lt;/span&gt;" style="rounded=1;whiteSpace=wrap;html=1;fillColor=none;" parent="1" vertex="1">
          <mxGeometry x="260" y="440" width="200" height="40" as="geometry" />
        </mxCell>
        <mxCell id="M1sSLCUo-GfqUuWwVRYb-15" style="edgeStyle=none;rounded=0;orthogonalLoop=1;jettySize=auto;html=1;entryX=1;entryY=0;entryDx=0;entryDy=0;exitX=0.5;exitY=1;exitDx=0;exitDy=0;" parent="1" source="M1sSLCUo-GfqUuWwVRYb-11" target="M1sSLCUo-GfqUuWwVRYb-12" edge="1">
          <mxGeometry relative="1" as="geometry" />
        </mxCell>
        <mxCell id="M1sSLCUo-GfqUuWwVRYb-19" value="设计必须易于 理解，必须把客户开发人员正在使用的同一个底层模型表示出来。&lt;br&gt;我们必须按照领域深层模型的 轮廓进行设计，以便大部分修改都可以灵活地完成。&lt;br&gt;代码的结果必须是完全清晰明了的，这样才 容易预见到修改的影响。" style="edgeLabel;html=1;align=center;verticalAlign=middle;resizable=0;points=[];labelBackgroundColor=none;" parent="M1sSLCUo-GfqUuWwVRYb-15" vertex="1" connectable="0">
          <mxGeometry x="-0.1038" y="2" relative="1" as="geometry">
            <mxPoint x="114.39" as="offset" />
          </mxGeometry>
        </mxCell>
        <mxCell id="M1sSLCUo-GfqUuWwVRYb-11" value="&lt;span style=&quot;font-family: &amp;#34;simoncinigaramond&amp;#34; ; font-size: 10pt&quot;&gt;修改代码的开发人员&lt;br&gt;the developer working&amp;nbsp;&lt;/span&gt;&lt;span style=&quot;font-family: &amp;#34;simoncinigaramond&amp;#34; ; font-size: 10pt&quot;&gt;to change it&amp;nbsp;&lt;br&gt;&lt;/span&gt;" style="rounded=1;whiteSpace=wrap;html=1;fillColor=none;" parent="1" vertex="1">
          <mxGeometry x="500" y="440" width="200" height="40" as="geometry" />
        </mxCell>
        <mxCell id="M1sSLCUo-GfqUuWwVRYb-12" value="代码" style="rounded=1;whiteSpace=wrap;html=1;fillColor=none;" parent="1" vertex="1">
          <mxGeometry x="440" y="600" width="80" height="40" as="geometry" />
        </mxCell>
        <mxCell id="M1sSLCUo-GfqUuWwVRYb-18" value="&lt;meta charset=&quot;utf-8&quot;&gt;&lt;span style=&quot;color: rgb(0, 0, 0); font-family: helvetica; font-size: 11px; font-style: normal; font-weight: 400; letter-spacing: normal; text-align: center; text-indent: 0px; text-transform: none; word-spacing: 0px; background-color: rgb(255, 255, 255); display: inline; float: none;&quot;&gt;将领域对象组织成应用代码或其他领域代码；&lt;/span&gt;&lt;br style=&quot;color: rgb(0, 0, 0); font-family: helvetica; font-size: 11px; font-style: normal; font-weight: 400; letter-spacing: normal; text-align: center; text-indent: 0px; text-transform: none; word-spacing: 0px;&quot;&gt;&lt;span style=&quot;color: rgb(0, 0, 0); font-family: helvetica; font-size: 11px; font-style: normal; font-weight: 400; letter-spacing: normal; text-align: center; text-indent: 0px; text-transform: none; word-spacing: 0px; background-color: rgb(255, 255, 255); display: inline; float: none;&quot;&gt;以便发挥设计的功能&lt;/span&gt;" style="text;whiteSpace=wrap;html=1;" parent="1" vertex="1">
          <mxGeometry x="260" y="390" width="250" height="50" as="geometry" />
        </mxCell>
        <mxCell id="M1sSLCUo-GfqUuWwVRYb-20" value="通过 模式 得到 柔性设计" style="text;html=1;align=center;verticalAlign=middle;resizable=0;points=[];autosize=1;" parent="1" vertex="1">
          <mxGeometry x="45" y="730" width="150" height="20" as="geometry" />
        </mxCell>
        <mxCell id="M1sSLCUo-GfqUuWwVRYb-21" value="释意接口：INTENTION-REVEALING INTERFACES" style="rounded=1;whiteSpace=wrap;html=1;labelBackgroundColor=none;fillColor=none;align=center;" parent="1" vertex="1">
          <mxGeometry x="200" y="720" width="320" height="40" as="geometry" />
        </mxCell>
        <mxCell id="M1sSLCUo-GfqUuWwVRYb-30" style="edgeStyle=orthogonalEdgeStyle;rounded=0;orthogonalLoop=1;jettySize=auto;html=1;entryX=0;entryY=0.5;entryDx=0;entryDy=0;labelBackgroundColor=none;curved=1;exitX=0.5;exitY=0;exitDx=0;exitDy=0;endArrow=open;endFill=0;" parent="1" source="M1sSLCUo-GfqUuWwVRYb-23" target="M1sSLCUo-GfqUuWwVRYb-28" edge="1">
          <mxGeometry relative="1" as="geometry" />
        </mxCell>
        <mxCell id="M1sSLCUo-GfqUuWwVRYb-33" value="make safe and simple" style="edgeLabel;html=1;align=center;verticalAlign=middle;resizable=0;points=[];" parent="M1sSLCUo-GfqUuWwVRYb-30" vertex="1" connectable="0">
          <mxGeometry x="-0.0968" y="-9" relative="1" as="geometry">
            <mxPoint y="20" as="offset" />
          </mxGeometry>
        </mxCell>
        <mxCell id="M1sSLCUo-GfqUuWwVRYb-31" style="edgeStyle=orthogonalEdgeStyle;curved=1;rounded=0;orthogonalLoop=1;jettySize=auto;html=1;entryX=0;entryY=0.5;entryDx=0;entryDy=0;labelBackgroundColor=none;endArrow=open;endFill=0;" parent="1" source="M1sSLCUo-GfqUuWwVRYb-23" target="M1sSLCUo-GfqUuWwVRYb-29" edge="1">
          <mxGeometry relative="1" as="geometry">
            <Array as="points">
              <mxPoint x="1720" y="665" />
            </Array>
          </mxGeometry>
        </mxCell>
        <mxCell id="M1sSLCUo-GfqUuWwVRYb-34" value="make side effect explicit" style="edgeLabel;html=1;align=center;verticalAlign=middle;resizable=0;points=[];" parent="M1sSLCUo-GfqUuWwVRYb-31" vertex="1" connectable="0">
          <mxGeometry x="-0.1667" y="7" relative="1" as="geometry">
            <mxPoint y="-8" as="offset" />
          </mxGeometry>
        </mxCell>
        <mxCell id="M1sSLCUo-GfqUuWwVRYb-23" value="&lt;span&gt;INTENTION-REVEALING INTERFACES&lt;/span&gt;" style="ellipse;whiteSpace=wrap;html=1;labelBackgroundColor=none;fillColor=none;align=center;" parent="1" vertex="1">
          <mxGeometry x="1480" y="640" width="120" height="50" as="geometry" />
        </mxCell>
        <mxCell id="M1sSLCUo-GfqUuWwVRYb-24" value="CLOSURE OF&lt;br&gt;OPERATION" style="ellipse;whiteSpace=wrap;html=1;labelBackgroundColor=none;fillColor=none;align=center;" parent="1" vertex="1">
          <mxGeometry x="1720" y="720" width="120" height="50" as="geometry" />
        </mxCell>
        <mxCell id="M1sSLCUo-GfqUuWwVRYb-25" value="既开发代码&lt;br&gt;也使用自己的代码" style="text;html=1;align=center;verticalAlign=middle;resizable=0;points=[];autosize=1;" parent="1" vertex="1">
          <mxGeometry x="78" y="353" width="110" height="30" as="geometry" />
        </mxCell>
        <mxCell id="M1sSLCUo-GfqUuWwVRYb-26" value="类和方法，需要一个能够反映出他概念的名字&lt;br&gt;&lt;br&gt;在命名类和操作时要描述它们的效果和目的，而不要表露它们是通过何种方式达到目的的。 &lt;br&gt;这样可以使客户开发人员不必去理解内部细节。这些名称应该与UBIQUITOUS LANGUAGE保持一 致，&lt;br&gt;以便团队成员可以迅速推断出它们的意义。在创建一个行为之前先为它编写一个测试，这样 可以促使你&lt;br&gt;站在客户开发人员的角度上来思考它。&lt;br&gt;&lt;br&gt;所有复杂的机制都应该封装到抽象接口的后面，接口只表明意图，而不表明方式。&lt;br&gt;&lt;br&gt;在领域的公共接口中，可以把关系和规则表述出来，但不要说明规则是如何实施的;可以把 事件和动作描述&lt;br&gt;出来，但不要描述它们是如何执行的;可以给出方程式，但不要给出解方程式的 数学方法。可以提出问题，&lt;br&gt;但不要给出获取答案的方法。" style="text;html=1;align=left;verticalAlign=middle;resizable=0;points=[];autosize=1;" parent="1" vertex="1">
          <mxGeometry x="560" y="660" width="570" height="170" as="geometry" />
        </mxCell>
        <mxCell id="M1sSLCUo-GfqUuWwVRYb-27" value="从名称，能看出行为" style="text;html=1;align=center;verticalAlign=middle;resizable=0;points=[];autosize=1;" parent="1" vertex="1">
          <mxGeometry x="200" y="779" width="120" height="20" as="geometry" />
        </mxCell>
        <mxCell id="M1sSLCUo-GfqUuWwVRYb-32" style="edgeStyle=orthogonalEdgeStyle;curved=1;rounded=0;orthogonalLoop=1;jettySize=auto;html=1;entryX=0.5;entryY=0;entryDx=0;entryDy=0;labelBackgroundColor=none;startArrow=open;startFill=0;endArrow=open;endFill=0;" parent="1" source="M1sSLCUo-GfqUuWwVRYb-28" target="M1sSLCUo-GfqUuWwVRYb-29" edge="1">
          <mxGeometry relative="1" as="geometry" />
        </mxCell>
        <mxCell id="M1sSLCUo-GfqUuWwVRYb-35" value="make composition safe" style="edgeLabel;html=1;align=center;verticalAlign=middle;resizable=0;points=[];" parent="M1sSLCUo-GfqUuWwVRYb-32" vertex="1" connectable="0">
          <mxGeometry x="-0.3949" y="-2" relative="1" as="geometry">
            <mxPoint x="41" y="13" as="offset" />
          </mxGeometry>
        </mxCell>
        <mxCell id="M1sSLCUo-GfqUuWwVRYb-28" value="SIDE-EFFECT-&lt;br&gt;FREE FUNCTION" style="ellipse;whiteSpace=wrap;html=1;labelBackgroundColor=none;fillColor=none;align=center;" parent="1" vertex="1">
          <mxGeometry x="1600" y="520" width="120" height="50" as="geometry" />
        </mxCell>
        <mxCell id="M1sSLCUo-GfqUuWwVRYb-29" value="ASSERTION" style="ellipse;whiteSpace=wrap;html=1;labelBackgroundColor=none;fillColor=none;align=center;" parent="1" vertex="1">
          <mxGeometry x="1800" y="600" width="120" height="50" as="geometry" />
        </mxCell>
        <mxCell id="M1sSLCUo-GfqUuWwVRYb-36" value="SIDE-EFFECT-FREE FUNCTION" style="rounded=1;whiteSpace=wrap;html=1;labelBackgroundColor=none;fillColor=none;align=center;" parent="1" vertex="1">
          <mxGeometry x="200" y="880" width="320" height="40" as="geometry" />
        </mxCell>
        <mxCell id="M1sSLCUo-GfqUuWwVRYb-37" value="副作用：&lt;span style=&quot;font-family: &amp;quot;???????????&amp;quot; ; font-size: 10pt&quot;&gt;任何对未来操作产生影响的系统状态改变都可以称为副作用&amp;nbsp;&lt;br&gt;&lt;br&gt;函数式编程，就是一种无副作用的方式&lt;br&gt;&lt;/span&gt;" style="text;html=1;align=left;verticalAlign=middle;resizable=0;points=[];autosize=1;" parent="1" vertex="1">
          <mxGeometry x="560" y="845" width="410" height="50" as="geometry" />
        </mxCell>
        <mxCell id="M1sSLCUo-GfqUuWwVRYb-38" value="命令：有副作用&lt;br&gt;&lt;div&gt;&lt;span&gt;查询：无副作用&lt;/span&gt;&lt;/div&gt;&lt;div&gt;&lt;span&gt;&lt;br&gt;&lt;/span&gt;&lt;/div&gt;&lt;div&gt;&lt;span&gt;并且返回 Value Object&lt;/span&gt;&lt;/div&gt;" style="text;html=1;align=left;verticalAlign=middle;resizable=0;points=[];autosize=1;" parent="1" vertex="1">
          <mxGeometry x="200" y="940" width="130" height="60" as="geometry" />
        </mxCell>
        <mxCell id="M1sSLCUo-GfqUuWwVRYb-39" value="函数化 + Value Object&lt;br&gt;将复杂的计算封装进去" style="text;html=1;align=center;verticalAlign=middle;resizable=0;points=[];autosize=1;" parent="1" vertex="1">
          <mxGeometry x="1590" y="482" width="140" height="30" as="geometry" />
        </mxCell>
        <mxCell id="M1sSLCUo-GfqUuWwVRYb-40" value="可以用来排查 SIDE-EFFECT-FREE 后，潜在的问题&lt;br&gt;比如使用了Entity&lt;br&gt;&lt;br&gt;" style="text;html=1;align=left;verticalAlign=middle;resizable=0;points=[];autosize=1;" parent="1" vertex="1">
          <mxGeometry x="1950" y="610" width="290" height="50" as="geometry" />
        </mxCell>
        <mxCell id="M1sSLCUo-GfqUuWwVRYb-41" value="&lt;span style=&quot;text-align: left&quot;&gt;通过 ASSERTION 验证真的是无副作用的（SIDE-EFFECT-FREE）&lt;/span&gt;" style="text;html=1;align=center;verticalAlign=middle;resizable=0;points=[];autosize=1;" parent="1" vertex="1">
          <mxGeometry x="1800" y="520" width="370" height="20" as="geometry" />
        </mxCell>
        <mxCell id="M1sSLCUo-GfqUuWwVRYb-42" value="INTENTION-REVEALING INTERFACE 清楚地表明了用途；&lt;br&gt;SIDE-EFFECT-FREE FUNCTION 和 ASSERTION 使我们能够更准确地预测结果，因此封装和抽象更加安全。" style="text;html=1;align=left;verticalAlign=middle;resizable=0;points=[];autosize=1;" parent="1" vertex="1">
          <mxGeometry x="1460" y="420" width="600" height="30" as="geometry" />
        </mxCell>
        <mxCell id="M1sSLCUo-GfqUuWwVRYb-43" value="CONCEPTUAL&lt;br&gt;CONTOURS" style="ellipse;whiteSpace=wrap;html=1;labelBackgroundColor=none;fillColor=none;align=center;" parent="1" vertex="1">
          <mxGeometry x="1560" y="840" width="120" height="50" as="geometry" />
        </mxCell>
        <mxCell id="M1sSLCUo-GfqUuWwVRYb-44" value="概念轮廓" style="text;html=1;align=center;verticalAlign=middle;resizable=0;points=[];autosize=1;" parent="1" vertex="1">
          <mxGeometry x="1700" y="855" width="60" height="20" as="geometry" />
        </mxCell>
        <mxCell id="M1sSLCUo-GfqUuWwVRYb-45" value="有时需要拆解，便于更灵活的使用；&lt;br&gt;有时需要合并，以便封装；&lt;br&gt;但&lt;br&gt;如果把模型或设计的所有元素都放在一个整体的大结构中，那么它们的功能就会发生重复。 &lt;br&gt;外部接口无法给出客户可能关心的全部信息。由于不同的概念被混合在一起，它们的意义变得很 难理解。&lt;br&gt;而另一方面，把类和方法分解开也可能是毫无意义的，这会使客户更复杂，迫使客户对象去 理解各个细微部分是如何组合在一起的。&lt;br&gt;更糟的是，有的概念可能会完全丢失。铀原子的一半并 不是铀。而且，粒度的大小并不是唯一要考虑的问题，我们还要考虑粒度是在哪种场合下使用的" style="text;html=1;align=left;verticalAlign=middle;resizable=0;points=[];autosize=1;" parent="1" vertex="1">
          <mxGeometry x="1295" y="863" width="810" height="100" as="geometry" />
        </mxCell>
        <mxCell id="M1sSLCUo-GfqUuWwVRYb-46" value="从单个方法的设计，到类和MODULE的设计，再到大型结构的设计(参见第16章)" style="text;html=1;align=center;verticalAlign=middle;resizable=0;points=[];autosize=1;" parent="1" vertex="1">
          <mxGeometry x="1460" y="280" width="440" height="20" as="geometry" />
        </mxCell>
        <mxCell id="M1sSLCUo-GfqUuWwVRYb-50" style="edgeStyle=orthogonalEdgeStyle;curved=1;rounded=0;orthogonalLoop=1;jettySize=auto;html=1;entryX=0;entryY=0.5;entryDx=0;entryDy=0;labelBackgroundColor=none;startArrow=none;startFill=0;endArrow=open;endFill=0;" parent="1" source="M1sSLCUo-GfqUuWwVRYb-47" target="M1sSLCUo-GfqUuWwVRYb-48" edge="1">
          <mxGeometry relative="1" as="geometry" />
        </mxCell>
        <mxCell id="M1sSLCUo-GfqUuWwVRYb-47" value="方法" style="ellipse;whiteSpace=wrap;html=1;aspect=fixed;labelBackgroundColor=none;fillColor=none;align=center;" parent="1" vertex="1">
          <mxGeometry x="1470" y="320" width="50" height="50" as="geometry" />
        </mxCell>
        <mxCell id="M1sSLCUo-GfqUuWwVRYb-51" style="edgeStyle=orthogonalEdgeStyle;curved=1;rounded=0;orthogonalLoop=1;jettySize=auto;html=1;entryX=0;entryY=0.5;entryDx=0;entryDy=0;labelBackgroundColor=none;startArrow=none;startFill=0;endArrow=open;endFill=0;" parent="1" source="M1sSLCUo-GfqUuWwVRYb-48" target="M1sSLCUo-GfqUuWwVRYb-49" edge="1">
          <mxGeometry relative="1" as="geometry" />
        </mxCell>
        <mxCell id="M1sSLCUo-GfqUuWwVRYb-48" value="module" style="ellipse;whiteSpace=wrap;html=1;aspect=fixed;labelBackgroundColor=none;fillColor=none;align=center;" parent="1" vertex="1">
          <mxGeometry x="1580" y="320" width="50" height="50" as="geometry" />
        </mxCell>
        <mxCell id="M1sSLCUo-GfqUuWwVRYb-49" value="大型&lt;br&gt;结构" style="ellipse;whiteSpace=wrap;html=1;aspect=fixed;labelBackgroundColor=none;fillColor=none;align=center;" parent="1" vertex="1">
          <mxGeometry x="1680" y="320" width="50" height="50" as="geometry" />
        </mxCell>
      </root>
    </mxGraphModel>
  </diagram>
</mxfile>
